<svg xmlns="http://www.w3.org/2000/svg" width="1254" height="1254" viewBox="0 0 1254 1254" style=""><path fill="#0A0A0A" d="M0 0h1254v1254H0z"/><path fill="#9BFA03" d="M378 314h620c-.648229 5.834057-1.369776 11.500715-2.4375 17.25-.901251 4.892505-1.72978 9.787682-2.472656 14.707031-.786114 5.16953-1.63596 10.324422-2.527344 15.476563l-.38417 2.221039c-.522927 3.016865-1.047572 6.033428-1.573838 9.049713-1.499732 8.606714-2.90637 17.208307-4.108398 25.862793-1.069492 7.400652-2.378547 14.76426-3.640625 22.134033-1.075719 6.358617-2.064156 12.71123-2.890625 19.107422-.756381 5.82838-1.72592 11.560328-2.902344 17.316406-1.576332 7.969236-2.827882 15.938523-3.915527 23.987549-.867801 6.278966-1.979003 12.48257-3.209473 18.699951-1.4384 7.284564-2.534072 14.493005-3.382812 21.871094-.639964 5.25791-1.542046 10.470623-2.429688 15.691406-1.446589 8.510854-2.825627 17.027883-4.125 25.5625-1.321544 8.672103-2.671474 17.338757-4.0625 26l-.51001 3.181885c-.718724 4.48048-1.44005 8.960492-2.169678 13.439209-1.207799 7.472465-2.33795 14.951496-3.378906 22.449219-2.0648 14.839483-4.2389 29.601999-7.069336 44.319824-1.689726 8.83169-3.094668 17.689816-4.426513 26.581787-1.100583 7.332146-2.319247 14.629103-3.67212 21.918701-.63843 3.575303-1.139438 7.16478-1.640624 10.761719-1.024064 7.272878-2.280986 14.492905-3.570313 21.722656-1.40883 8.00374-2.776059 15.978307-3.625 24.0625-.522047 4.911106-1.22712 9.668521-2.25 14.5-1.749162 8.2776-2.927801 16.621604-4.139648 24.992432-1.152658 7.946368-2.403427 15.865697-3.774415 23.7771-.61026 3.620648-1.130738 7.251182-1.64453 10.886718-1.092836 7.730779-2.29014 15.443693-3.503907 23.15625a47258 47258 0 0 0-.671875 4.282959 19797 19797 0 0 1-1.312012 8.35083c-.46605 2.963055-.930972 5.92628-1.39502 8.889649C902.83703 911.148492 900.407759 926.0719 898 941H279c.626443-8.14376 1.31762-15.901718 2.707031-23.890625l.500931-2.967285c.529674-3.1316 1.067115-6.261812 1.604538-9.39209.553435-3.262692 1.104844-6.525722 1.65625-9.788757a9885 9885 0 0 1 1.081055-6.380982c1.233769-7.270488 2.429703-14.54529 3.575195-21.830261 1.459908-9.249915 2.990347-18.487175 4.535706-27.723114 4.26599-24.916679 4.26599-24.916679 7.57074-49.971222.633388-5.549323 1.785994-10.90207 3.041991-16.344726 1.033421-5.278224 1.573048-10.583852 2.080079-15.935303.551615-5.680766.551615-5.680766 1.646484-6.775635.288513-2.245386.527384-4.497126.75-6.75.868464-8.084822 2.20399-16.0582 3.625-24.0625 1.696996-9.585149 3.23993-19.168589 4.5625-28.8125 1.571836-11.421414 3.466612-22.765498 5.455719-34.119537 1.950031-11.151488 3.664667-22.314443 5.208344-33.53061 1.093453-7.850654 2.420527-15.629012 3.896728-23.415771 1.382541-7.389375 2.493778-14.806168 3.564209-22.246582.992389-6.89376 1.990224-13.748569 3.4375-20.5625 1.689993-7.965807 2.789732-16.00717 3.951416-24.064453 1.041863-7.170614 2.19578-14.305803 3.486084-21.435547 2.052484-11.414514 3.658865-22.884327 5.274902-34.3667q.315613-2.24244.631348-4.484863l.30777-2.18637C354.329304 461.623883 355.643 453.310537 357 445c.627972-3.85369 1.2529-7.707858 1.875-11.5625l.499756-3.092285c1.022157-6.388363 1.9918-12.782804 2.922119-19.185059l.334381-2.297744c.544725-3.749705 1.084713-7.500017 1.618256-11.251328 1.644196-11.452062 1.644196-11.452062 2.773926-16.173584 1.218354-5.100878 1.781445-10.279728 2.445312-15.476562 1.01974-7.603067 2.376528-15.151645 3.675781-22.710938 1.310771-7.719877 2.445233-15.433798 3.408203-23.203125C377 317 377 317 378 314"/><path fill="#0C0D0B" d="M522 507h88c9.7875 45.675 9.7875 45.675 14.09375 66.007813 2.439912 11.519929 4.892613 23.037142 7.34375 34.554687l.689667 3.240814A413746 413746 0 0 0 636 629c2.513146-2.404124 4.599364-4.669674 6.375-7.660156l1.276611-2.124024L645 616.9375c.981836-1.632255 1.96495-3.263742 2.949219-4.894531l1.528808-2.537598c2.398327-3.947967 4.861921-7.853593 7.334473-11.755371l1.498535-2.36621C659.87232 592.921438 661.435792 590.460492 663 588l1.668457-2.625488c2.914179-4.584653 5.83081-9.167737 8.749512-13.749512 2.401024-3.769195 4.79934-7.540091 7.195312-11.3125 9.061748-14.264205 9.061748-14.264205 13.253906-20.769531l1.270936-1.982132c.88985-1.365557 1.796748-2.72033 2.728454-4.057678 2.595179-3.784295 4.512858-7.31694 6.038208-11.652085C706.417828 515.621522 709.211275 510.661712 715 507c12.0792-3.839942 26.452295-1.957159 38.904724-1.373291 4.858803.206015 9.719677.296228 14.581604.396728 9.510032.2134 19.0108.553857 28.513672.976563-.150538 1.745525-.30342 3.490848-.457275 5.236084l-.257218 2.945297c-.37356 3.687911-1.00867 7.242812-1.723007 10.881119l-.4021 2.068604c-.381735 1.957293-.770856 3.913142-1.1604 5.868896l-.570312 2.929688c-.744199 3.791867-1.542748 7.55941-2.429688 11.320312-.84752 3.751429-1.415397 7.50244-1.9375 11.3125-.980849 7.116856-2.267108 14.157235-3.632812 21.208008-.451672 2.34356-.894688 4.688635-1.335938 7.03418-1.399889 7.424997-2.812155 14.846102-4.320312 22.25-2.29599 11.27283-4.42043 22.542634-6.262696 33.898681-1.137914 6.957097-2.406266 13.878616-3.760742 20.796631-2.769404 14.147944-5.330678 28.332362-7.895508 42.518555-1.477473 8.170688-2.955015 16.34136-4.47168 24.504883l-.66748 3.59912C754.882356 739.596574 753.933964 743.797162 753 748h-70c.606477-6.671249 1.220186-13.013838 2.45874-19.541504l.434052-2.355118c.467104-2.52757.941309-5.053748 1.415802-7.57994a12374 12374 0 0 0 .99025-5.336274c.688753-3.710425 1.380757-7.420224 2.075424-11.129547.88656-4.734194 1.767353-9.469436 2.64601-14.205103.844048-4.547575 1.691123-9.094586 2.538316-13.641577l.482572-2.594715c.455234-2.444817.912637-4.889218 1.3707-7.333507l.398483-2.14476c.825226-4.387835 1.751433-8.744255 2.746186-13.096854.655239-3.015814 1.118646-6.051256 1.568465-9.103601l.507813-3.410156L703 634h2v-10l-1.617187 2.9375c-4.178231 7.53832-8.491814 14.950513-13.09839 22.23462-4.23381 6.708619-8.35821 13.482734-12.471923 20.26538l-1.107666 1.825806c-5.702065 9.402341-11.367598 18.826296-17.01538 28.261352-5.642479 9.418401-11.342195 18.801656-17.056641 28.176514l-2.050782 3.36914-1.80542 2.961426C636.80431 737.326948 634.905354 740.665631 633 744h-37c-3.332016-12.217391-3.332016-12.217391-4.3125-17.5-1.346564-6.94911-2.87634-13.846171-4.4375-20.75-2.425897-10.760582-4.625529-21.55187-6.75-32.375-2.632358-13.409932-5.579939-26.706333-8.946777-39.954346C570.915308 630.629425 570.447655 627.827387 570 625c-3.120619 14.12252-6.1395 28.223427-8.53247 42.489258-1.176501 6.968364-2.502715 13.896915-3.90503 20.823242l-.632568 3.128174a719912 719912 0 0 1-1.28003 6.328369c-2.848826 14.162796-5.657506 28.3258-7.75 42.623047-.80254 5.413185-.80254 5.413185-1.899902 7.60791h-69c1.125361-11.25361 1.125361-11.25361 1.812256-15.131104l.465713-2.656967.499375-2.778335.52977-2.99501c2.03649-11.467503 4.142763-22.922412 6.255386-34.376084q.585105-3.180638 1.169922-6.361328C488.81807 677.800124 489.907609 671.899803 491 666l.42212-2.281158c1.911508-10.31391 3.9155-20.608477 5.936797-30.901307 3.077226-15.682007 6.089247-31.37327 8.960907-47.09439 1.275983-6.984473 2.558357-13.96777 3.84201-20.950837.44789-2.43912.894215-4.878523 1.340363-7.317962 1.542153-8.410238 3.155782-16.79989 4.850342-25.180908.954256-4.824534 1.770826-9.66827 2.551758-14.523438.663684-3.930195 1.59101-6.988268 3.095703-10.75"/><path fill="#1A2907" d="M562 650h2c-1.169432 9.823229-2.770827 19.355113-5 29h-2v-4h2l-.625-2.375c-.497525-4.809408.50892-8.95776 1.625-13.625h2l-.5625-2.8125C561 653 561 653 562 650"/><path fill="#82CF08" d="M705 623c1.370582 4.111746.756409 6.736606 0 11l-2 1-2 3h-4c1.372873-3.69876 3.063555-6.951448 5.125-10.3125l1.632813-2.675781z"/><path fill="#95DF0C" d="M569 623c2.365038 2.365038 2.54921 3.64036 3.1875 6.875l.542969 2.617188c.268722 2.500282.046489 4.138367-.730469 6.507812l-3-3-1 3c-1.496973-5.688497-.334804-10.41809 1-16"/><path fill="#9DF314" d="M635 619c2.621875 1.04875 3.793714 1.649313 5.25 4.125L641 625l-4 6c-2.6102-2.6102-2.637517-4.375167-3-8 .4375-2.375.4375-2.375 1-4"/><path fill="#19260A" d="m986 382 3 1c-.963554 9.410023-.963554 9.410023-2 14-2.147-3.441755-2.098568-5.77203-1.625-9.75l.335938-2.984375z"/><path fill="#95E908" d="M563 663c1.137324 3.40402.8399 5.774567.0625 9.25l-.589844 2.703125L562 677c-2.579537-4.424899-1.955425-7.063638-1-12z"/><path fill="#83D305" d="M557 686c2 2 2 2 2.3125 4.25-.386057 3.397299-1.657269 5.784377-3.3125 8.75-1.073109-3.271856-.892631-5.429476-.0625-8.75l.589844-2.421875z"/><path fill="#233607" d="M768 661c1.456065 4.52093.270328 7.516488-1 12h-2c.113987-1.62581.241557-3.250672.375-4.875l.210938-2.742187C766 663 766 663 768 661"/><path fill="#88D304" d="M992 340h1c.054162 1.603793.092866 3.208114.125 4.8125l.070313 2.707031C993 350 993 350 991 353c-1.428571-8.428571-1.428571-8.428571 1-13"/><path fill="#233708" d="M899 928h1c.223634 1.414332.428265 2.831676.625 4.25l.351563 2.390625c.02663 2.6809-.610642 4.086316-1.976563 6.359375-1.285714-8.428571-1.285714-8.428571 0-13"/><path fill="#85E006" d="m695 640 2 3-4 2 1 3-3 2-1-2c.996094-1.945312.996094-1.945312 2.4375-4.125l1.433594-2.195312z"/><path fill="#375B05" d="M506 587h1v12h-2l-1 3c.141837-1.750328.288634-3.500255.4375-5.25l.246094-2.953125c.267152-2.361493.670126-4.515886 1.316406-6.796875"/><path fill="#365608" d="M787 559c1.073109 3.271856.892631 5.429476.0625 8.75l-.589844 2.421875L786 572c-2-3-2-3-2-7h2z"/><path fill="#1C2D09" d="M794 508h3l-1 10c-2.429452-3.644177-2.161796-5.712413-2-10"/><path fill="#152508" d="M508 578h2l-1 9h-2z"/><path fill="#71B206" d="M283 910h1c.924706 4.715998 1.229238 7.672656-1 12h-1c-.081596-4.161383.017515-7.947248 1-12"/><path fill="#2A4309" d="M689 710c2.151944 3.227916 2.200864 4.284008 2 8l-3 1z"/><path fill="#97EE09" d="M514 532c1.0625 1.8125 1.0625 1.8125 2 4-1 3-1 3-3 4-.625-2.3125-.625-2.3125-1-5z"/></svg>